solid OpenSCAD_Model
  facet normal -0.99452 -0.104551 0
    outer loop
      vertex 18 0 84
      vertex 18.153 -1.45538 90
      vertex 18 0 90
    endloop
  endfacet
  facet normal 0 0 -1
    outer loop
      vertex 132.5 -58.3301 84
      vertex 133.346 57.7157 84
      vertex 133.346 -57.7157 84
    endloop
  endfacet
  facet normal -0.95106 -0.309007 0
    outer loop
      vertex 18.6052 -2.84716 84
      vertex 18.153 -1.45538 90
      vertex 18.153 -1.45538 84
    endloop
  endfacet
  facet normal 1 0 0
    outer loop
      vertex 135 54 90
      vertex 135 -54 84
      vertex 135 54 84
    endloop
  endfacet
  facet normal 0 -0 -1
    outer loop
      vertex 30.4549 20.7553 84
      vertex 133.346 57.7157 84
      vertex 29.5 20.3301 84
    endloop
  endfacet
  facet normal 0 -0 -1
    outer loop
      vertex 28.6543 19.7157 84
      vertex 133.346 57.7157 84
      vertex 27.9549 18.9389 84
    endloop
  endfacet
  facet normal 0.865867 -0.500274 0
    outer loop
      vertex 134.045 -56.9389 84
      vertex 134.568 -56.0337 90
      vertex 134.045 -56.9389 90
    endloop
  endfacet
  facet normal -0 -0 1
    outer loop
      vertex 19.3369 -4.1145 90
      vertex 129.477 -58.9726 90
      vertex 18.6052 -2.84716 90
    endloop
  endfacet
  facet normal 0.587626 0.809133 0
    outer loop
      vertex 132.5 58.3301 90
      vertex 133.346 57.7157 84
      vertex 132.5 58.3301 84
    endloop
  endfacet
  facet normal 0.406742 0.913543 0
    outer loop
      vertex 131.545 58.7553 90
      vertex 132.5 58.3301 84
      vertex 131.545 58.7553 84
    endloop
  endfacet
  facet normal 0 1 0
    outer loop
      vertex 129.477 58.9726 90
      vertex 130.523 58.9726 84
      vertex 129.477 58.9726 84
    endloop
  endfacet
  facet normal 0.207973 -0.978135 0
    outer loop
      vertex 131.545 -58.7553 90
      vertex 130.523 -58.9726 90
      vertex 131.545 -58.7553 84
    endloop
  endfacet
  facet normal -0.743161 -0.669113 0
    outer loop
      vertex 27.9549 -18.9389 84
      vertex 28.6543 -19.7157 90
      vertex 27.9549 -18.9389 90
    endloop
  endfacet
  facet normal -0.406777 0.913527 0
    outer loop
      vertex 29.5 20.3301 90
      vertex 30.4549 20.7553 90
      vertex 29.5 20.3301 84
    endloop
  endfacet
  facet normal 0 0 1
    outer loop
      vertex 135 -54 90
      vertex 129.477 -58.9726 90
      vertex 134.891 -55.0396 90
    endloop
  endfacet
  facet normal 1 -0 0
    outer loop
      vertex 135 -54 90
      vertex 135 -54 84
      vertex 135 54 90
    endloop
  endfacet
  facet normal 0 0 -1
    outer loop
      vertex 134.568 -56.0337 84
      vertex 133.346 57.7157 84
      vertex 134.891 -55.0396 84
    endloop
  endfacet
  facet normal 0 0 -1
    outer loop
      vertex 130.523 -58.9726 84
      vertex 133.346 57.7157 84
      vertex 131.545 -58.7553 84
    endloop
  endfacet
  facet normal 0 0 1
    outer loop
      vertex 134.891 -55.0396 90
      vertex 129.477 -58.9726 90
      vertex 134.568 -56.0337 90
    endloop
  endfacet
  facet normal 0.406742 0.913543 0
    outer loop
      vertex 132.5 58.3301 90
      vertex 132.5 58.3301 84
      vertex 131.545 58.7553 90
    endloop
  endfacet
  facet normal -0.95106 0.309007 0
    outer loop
      vertex 18.153 1.45538 84
      vertex 18.6052 2.84716 90
      vertex 18.6052 2.84716 84
    endloop
  endfacet
  facet normal 0.865867 -0.500274 0
    outer loop
      vertex 134.568 -56.0337 84
      vertex 134.568 -56.0337 90
      vertex 134.045 -56.9389 84
    endloop
  endfacet
  facet normal -0.361528 -0.932361 0
    outer loop
      vertex 128.455 -58.7553 84
      vertex 128.455 -58.7553 90
      vertex 30.4549 -20.7553 84
    endloop
  endfacet
  facet normal 0 -0 -1
    outer loop
      vertex 19.3369 4.1145 84
      vertex 133.346 57.7157 84
      vertex 18.6052 2.84716 84
    endloop
  endfacet
  facet normal -0.864528 -0.502584 -0
    outer loop
      vertex 19.3369 -4.1145 90
      vertex 19.3369 -4.1145 84
      vertex 27.9549 -18.9389 90
    endloop
  endfacet
  facet normal 0 0 -1
    outer loop
      vertex 29.5 -20.3301 84
      vertex 133.346 57.7157 84
      vertex 30.4549 -20.7553 84
    endloop
  endfacet
  facet normal 0.207973 -0.978135 0
    outer loop
      vertex 131.545 -58.7553 84
      vertex 130.523 -58.9726 90
      vertex 130.523 -58.9726 84
    endloop
  endfacet
  facet normal -0.866025 0.5 0
    outer loop
      vertex 19.3369 4.1145 90
      vertex 19.3369 4.1145 84
      vertex 18.6052 2.84716 90
    endloop
  endfacet
  facet normal -0.207973 -0.978135 0
    outer loop
      vertex 129.477 -58.9726 84
      vertex 129.477 -58.9726 90
      vertex 128.455 -58.7553 84
    endloop
  endfacet
  facet normal -0.866025 0.5 0
    outer loop
      vertex 18.6052 2.84716 90
      vertex 19.3369 4.1145 84
      vertex 18.6052 2.84716 84
    endloop
  endfacet
  facet normal 0.207973 0.978135 -0
    outer loop
      vertex 131.545 58.7553 84
      vertex 130.523 58.9726 84
      vertex 131.545 58.7553 90
    endloop
  endfacet
  facet normal 0 0 -1
    outer loop
      vertex 27.9549 -18.9389 84
      vertex 133.346 57.7157 84
      vertex 28.6543 -19.7157 84
    endloop
  endfacet
  facet normal -0 -0 -1
    outer loop
      vertex 131.545 58.7553 84
      vertex 133.346 57.7157 84
      vertex 130.523 58.9726 84
    endloop
  endfacet
  facet normal -0.361528 0.932361 0
    outer loop
      vertex 128.455 58.7553 84
      vertex 30.4549 20.7553 90
      vertex 128.455 58.7553 90
    endloop
  endfacet
  facet normal -0.743161 0.669113 0
    outer loop
      vertex 27.9549 18.9389 90
      vertex 28.6543 19.7157 84
      vertex 27.9549 18.9389 84
    endloop
  endfacet
  facet normal -0 0 1
    outer loop
      vertex 29.5 20.3301 90
      vertex 129.477 -58.9726 90
      vertex 30.4549 20.7553 90
    endloop
  endfacet
  facet normal 0.865867 0.500274 0
    outer loop
      vertex 134.568 56.0337 90
      vertex 134.568 56.0337 84
      vertex 134.045 56.9389 90
    endloop
  endfacet
  facet normal -0 0 1
    outer loop
      vertex 18 0 90
      vertex 129.477 -58.9726 90
      vertex 18.153 1.45538 90
    endloop
  endfacet
  facet normal -0 -0 1
    outer loop
      vertex 18.153 -1.45538 90
      vertex 129.477 -58.9726 90
      vertex 18 0 90
    endloop
  endfacet
  facet normal 0 0 -1
    outer loop
      vertex 135 -54 84
      vertex 133.346 57.7157 84
      vertex 135 54 84
    endloop
  endfacet
  facet normal -0.406777 0.913527 0
    outer loop
      vertex 29.5 20.3301 84
      vertex 30.4549 20.7553 90
      vertex 30.4549 20.7553 84
    endloop
  endfacet
  facet normal -0.361528 0.932361 0
    outer loop
      vertex 30.4549 20.7553 84
      vertex 30.4549 20.7553 90
      vertex 128.455 58.7553 84
    endloop
  endfacet
  facet normal -0 -0 1
    outer loop
      vertex 128.455 -58.7553 90
      vertex 129.477 -58.9726 90
      vertex 30.4549 -20.7553 90
    endloop
  endfacet
  facet normal -0.743161 -0.669113 0
    outer loop
      vertex 28.6543 -19.7157 84
      vertex 28.6543 -19.7157 90
      vertex 27.9549 -18.9389 84
    endloop
  endfacet
  facet normal -0.406777 -0.913527 -0
    outer loop
      vertex 30.4549 -20.7553 90
      vertex 29.5 -20.3301 90
      vertex 30.4549 -20.7553 84
    endloop
  endfacet
  facet normal 0.743351 -0.668901 0
    outer loop
      vertex 134.045 -56.9389 84
      vertex 133.346 -57.7157 90
      vertex 133.346 -57.7157 84
    endloop
  endfacet
  facet normal -0 -0 1
    outer loop
      vertex 28.6543 -19.7157 90
      vertex 129.477 -58.9726 90
      vertex 27.9549 -18.9389 90
    endloop
  endfacet
  facet normal -0 -0 1
    outer loop
      vertex 27.9549 -18.9389 90
      vertex 129.477 -58.9726 90
      vertex 19.3369 -4.1145 90
    endloop
  endfacet
  facet normal 0.587626 0.809133 0
    outer loop
      vertex 133.346 57.7157 90
      vertex 133.346 57.7157 84
      vertex 132.5 58.3301 90
    endloop
  endfacet
  facet normal -0.587762 0.809034 0
    outer loop
      vertex 29.5 20.3301 90
      vertex 28.6543 19.7157 84
      vertex 28.6543 19.7157 90
    endloop
  endfacet
  facet normal -0.99452 0.104551 0
    outer loop
      vertex 18 0 90
      vertex 18.153 1.45538 90
      vertex 18 0 84
    endloop
  endfacet
  facet normal 0.207973 0.978135 0
    outer loop
      vertex 131.545 58.7553 90
      vertex 130.523 58.9726 84
      vertex 130.523 58.9726 90
    endloop
  endfacet
  facet normal -0.99452 0.104551 0
    outer loop
      vertex 18 0 84
      vertex 18.153 1.45538 90
      vertex 18.153 1.45538 84
    endloop
  endfacet
  facet normal 0.587626 -0.809133 0
    outer loop
      vertex 132.5 -58.3301 84
      vertex 133.346 -57.7157 90
      vertex 132.5 -58.3301 90
    endloop
  endfacet
  facet normal 0 0 -1
    outer loop
      vertex 131.545 -58.7553 84
      vertex 133.346 57.7157 84
      vertex 132.5 -58.3301 84
    endloop
  endfacet
  facet normal -0.864528 0.502584 0
    outer loop
      vertex 27.9549 18.9389 84
      vertex 19.3369 4.1145 84
      vertex 27.9549 18.9389 90
    endloop
  endfacet
  facet normal 0 0 1
    outer loop
      vertex 133.346 -57.7157 90
      vertex 129.477 -58.9726 90
      vertex 132.5 -58.3301 90
    endloop
  endfacet
  facet normal -0.866025 -0.5 0
    outer loop
      vertex 18.6052 -2.84716 90
      vertex 19.3369 -4.1145 84
      vertex 19.3369 -4.1145 90
    endloop
  endfacet
  facet normal -0.99452 -0.104551 0
    outer loop
      vertex 18.153 -1.45538 84
      vertex 18.153 -1.45538 90
      vertex 18 0 84
    endloop
  endfacet
  facet normal 0.951057 0.309015 0
    outer loop
      vertex 134.891 55.0396 90
      vertex 134.891 55.0396 84
      vertex 134.568 56.0337 90
    endloop
  endfacet
  facet normal -0.95106 -0.309007 -0
    outer loop
      vertex 18.6052 -2.84716 90
      vertex 18.153 -1.45538 90
      vertex 18.6052 -2.84716 84
    endloop
  endfacet
  facet normal 0 0 -1
    outer loop
      vertex 129.477 -58.9726 84
      vertex 133.346 57.7157 84
      vertex 130.523 -58.9726 84
    endloop
  endfacet
  facet normal -0.207973 0.978135 0
    outer loop
      vertex 128.455 58.7553 90
      vertex 129.477 58.9726 84
      vertex 128.455 58.7553 84
    endloop
  endfacet
  facet normal -0.207973 0.978135 0
    outer loop
      vertex 129.477 58.9726 90
      vertex 129.477 58.9726 84
      vertex 128.455 58.7553 90
    endloop
  endfacet
  facet normal 0.587626 -0.809133 0
    outer loop
      vertex 133.346 -57.7157 84
      vertex 133.346 -57.7157 90
      vertex 132.5 -58.3301 84
    endloop
  endfacet
  facet normal 0 0 -1
    outer loop
      vertex 134.045 -56.9389 84
      vertex 133.346 57.7157 84
      vertex 134.568 -56.0337 84
    endloop
  endfacet
  facet normal 0.994548 0.104276 0
    outer loop
      vertex 135 54 90
      vertex 134.891 55.0396 84
      vertex 134.891 55.0396 90
    endloop
  endfacet
  facet normal 0 -0 -1
    outer loop
      vertex 18.6052 2.84716 84
      vertex 133.346 57.7157 84
      vertex 18.153 1.45538 84
    endloop
  endfacet
  facet normal 0.994548 -0.104276 0
    outer loop
      vertex 135 -54 84
      vertex 134.891 -55.0396 90
      vertex 134.891 -55.0396 84
    endloop
  endfacet
  facet normal -0.587762 -0.809034 0
    outer loop
      vertex 28.6543 -19.7157 84
      vertex 29.5 -20.3301 90
      vertex 28.6543 -19.7157 90
    endloop
  endfacet
  facet normal -0.587762 0.809034 0
    outer loop
      vertex 29.5 20.3301 84
      vertex 28.6543 19.7157 84
      vertex 29.5 20.3301 90
    endloop
  endfacet
  facet normal -0.743161 0.669113 0
    outer loop
      vertex 28.6543 19.7157 90
      vertex 28.6543 19.7157 84
      vertex 27.9549 18.9389 90
    endloop
  endfacet
  facet normal -0.95106 0.309007 0
    outer loop
      vertex 18.153 1.45538 90
      vertex 18.6052 2.84716 90
      vertex 18.153 1.45538 84
    endloop
  endfacet
  facet normal -0.361528 -0.932361 0
    outer loop
      vertex 30.4549 -20.7553 84
      vertex 128.455 -58.7553 90
      vertex 30.4549 -20.7553 90
    endloop
  endfacet
  facet normal 0.951057 0.309015 0
    outer loop
      vertex 134.568 56.0337 90
      vertex 134.891 55.0396 84
      vertex 134.568 56.0337 84
    endloop
  endfacet
  facet normal 0 -0 -1
    outer loop
      vertex 18.153 1.45538 84
      vertex 133.346 57.7157 84
      vertex 18 0 84
    endloop
  endfacet
  facet normal -0 -0 1
    outer loop
      vertex 29.5 -20.3301 90
      vertex 129.477 -58.9726 90
      vertex 28.6543 -19.7157 90
    endloop
  endfacet
  facet normal 0 0 -1
    outer loop
      vertex 134.891 -55.0396 84
      vertex 133.346 57.7157 84
      vertex 135 -54 84
    endloop
  endfacet
  facet normal 0 0 -1
    outer loop
      vertex 28.6543 -19.7157 84
      vertex 133.346 57.7157 84
      vertex 29.5 -20.3301 84
    endloop
  endfacet
  facet normal -0 0 1
    outer loop
      vertex 18.153 1.45538 90
      vertex 129.477 -58.9726 90
      vertex 18.6052 2.84716 90
    endloop
  endfacet
  facet normal 0.406742 -0.913543 0
    outer loop
      vertex 132.5 -58.3301 84
      vertex 132.5 -58.3301 90
      vertex 131.545 -58.7553 84
    endloop
  endfacet
  facet normal 0 0 1
    outer loop
      vertex 134.891 55.0396 90
      vertex 129.477 -58.9726 90
      vertex 135 54 90
    endloop
  endfacet
  facet normal 0.951057 -0.309015 0
    outer loop
      vertex 134.891 -55.0396 84
      vertex 134.891 -55.0396 90
      vertex 134.568 -56.0337 84
    endloop
  endfacet
  facet normal 0.743351 -0.668901 0
    outer loop
      vertex 134.045 -56.9389 90
      vertex 133.346 -57.7157 90
      vertex 134.045 -56.9389 84
    endloop
  endfacet
  facet normal 0.406742 -0.913543 0
    outer loop
      vertex 131.545 -58.7553 84
      vertex 132.5 -58.3301 90
      vertex 131.545 -58.7553 90
    endloop
  endfacet
  facet normal -0 0 1
    outer loop
      vertex 19.3369 4.1145 90
      vertex 129.477 -58.9726 90
      vertex 27.9549 18.9389 90
    endloop
  endfacet
  facet normal -0 0 1
    outer loop
      vertex 27.9549 18.9389 90
      vertex 129.477 -58.9726 90
      vertex 28.6543 19.7157 90
    endloop
  endfacet
  facet normal 0.865867 0.500274 0
    outer loop
      vertex 134.045 56.9389 90
      vertex 134.568 56.0337 84
      vertex 134.045 56.9389 84
    endloop
  endfacet
  facet normal 0 1 0
    outer loop
      vertex 130.523 58.9726 90
      vertex 130.523 58.9726 84
      vertex 129.477 58.9726 90
    endloop
  endfacet
  facet normal 0 0 -1
    outer loop
      vertex 19.3369 -4.1145 84
      vertex 133.346 57.7157 84
      vertex 27.9549 -18.9389 84
    endloop
  endfacet
  facet normal -0.207973 -0.978135 0
    outer loop
      vertex 128.455 -58.7553 84
      vertex 129.477 -58.9726 90
      vertex 128.455 -58.7553 90
    endloop
  endfacet
  facet normal 0 -1 0
    outer loop
      vertex 130.523 -58.9726 84
      vertex 129.477 -58.9726 90
      vertex 129.477 -58.9726 84
    endloop
  endfacet
  facet normal 0.951057 -0.309015 0
    outer loop
      vertex 134.568 -56.0337 84
      vertex 134.891 -55.0396 90
      vertex 134.568 -56.0337 90
    endloop
  endfacet
  facet normal -0 -0 1
    outer loop
      vertex 18.6052 -2.84716 90
      vertex 129.477 -58.9726 90
      vertex 18.153 -1.45538 90
    endloop
  endfacet
  facet normal 0.994548 0.104276 -0
    outer loop
      vertex 135 54 84
      vertex 134.891 55.0396 84
      vertex 135 54 90
    endloop
  endfacet
  facet normal 0 0 -1
    outer loop
      vertex 133.346 -57.7157 84
      vertex 133.346 57.7157 84
      vertex 134.045 -56.9389 84
    endloop
  endfacet
  facet normal -0 0 1
    outer loop
      vertex 30.4549 20.7553 90
      vertex 129.477 -58.9726 90
      vertex 128.455 58.7553 90
    endloop
  endfacet
  facet normal 0 0 1
    outer loop
      vertex 131.545 58.7553 90
      vertex 129.477 -58.9726 90
      vertex 132.5 58.3301 90
    endloop
  endfacet
  facet normal -0 0 1
    outer loop
      vertex 28.6543 19.7157 90
      vertex 129.477 -58.9726 90
      vertex 29.5 20.3301 90
    endloop
  endfacet
  facet normal -0 -0 -1
    outer loop
      vertex 130.523 58.9726 84
      vertex 133.346 57.7157 84
      vertex 129.477 58.9726 84
    endloop
  endfacet
  facet normal -0.866025 -0.5 0
    outer loop
      vertex 18.6052 -2.84716 84
      vertex 19.3369 -4.1145 84
      vertex 18.6052 -2.84716 90
    endloop
  endfacet
  facet normal -0.864528 -0.502584 -0
    outer loop
      vertex 27.9549 -18.9389 90
      vertex 19.3369 -4.1145 84
      vertex 27.9549 -18.9389 84
    endloop
  endfacet
  facet normal 0 0 1
    outer loop
      vertex 134.568 56.0337 90
      vertex 129.477 -58.9726 90
      vertex 134.891 55.0396 90
    endloop
  endfacet
  facet normal 0 0 1
    outer loop
      vertex 135 54 90
      vertex 129.477 -58.9726 90
      vertex 135 -54 90
    endloop
  endfacet
  facet normal 0.743351 0.668901 0
    outer loop
      vertex 134.045 56.9389 90
      vertex 133.346 57.7157 84
      vertex 133.346 57.7157 90
    endloop
  endfacet
  facet normal -0 -0 -1
    outer loop
      vertex 132.5 58.3301 84
      vertex 133.346 57.7157 84
      vertex 131.545 58.7553 84
    endloop
  endfacet
  facet normal 0.994548 -0.104276 0
    outer loop
      vertex 135 -54 90
      vertex 134.891 -55.0396 90
      vertex 135 -54 84
    endloop
  endfacet
  facet normal 0 0 1
    outer loop
      vertex 134.045 56.9389 90
      vertex 129.477 -58.9726 90
      vertex 134.568 56.0337 90
    endloop
  endfacet
  facet normal 0 -0 -1
    outer loop
      vertex 128.455 58.7553 84
      vertex 133.346 57.7157 84
      vertex 30.4549 20.7553 84
    endloop
  endfacet
  facet normal 0 0 -1
    outer loop
      vertex 18.153 -1.45538 84
      vertex 133.346 57.7157 84
      vertex 18.6052 -2.84716 84
    endloop
  endfacet
  facet normal 0 0 1
    outer loop
      vertex 132.5 -58.3301 90
      vertex 129.477 -58.9726 90
      vertex 131.545 -58.7553 90
    endloop
  endfacet
  facet normal -0 -0 1
    outer loop
      vertex 30.4549 -20.7553 90
      vertex 129.477 -58.9726 90
      vertex 29.5 -20.3301 90
    endloop
  endfacet
  facet normal 0 0 -1
    outer loop
      vertex 18.6052 -2.84716 84
      vertex 133.346 57.7157 84
      vertex 19.3369 -4.1145 84
    endloop
  endfacet
  facet normal 0 -0 -1
    outer loop
      vertex 29.5 20.3301 84
      vertex 133.346 57.7157 84
      vertex 28.6543 19.7157 84
    endloop
  endfacet
  facet normal 0.743351 0.668901 -0
    outer loop
      vertex 134.045 56.9389 84
      vertex 133.346 57.7157 84
      vertex 134.045 56.9389 90
    endloop
  endfacet
  facet normal 0 0 -1
    outer loop
      vertex 134.568 56.0337 84
      vertex 133.346 57.7157 84
      vertex 134.045 56.9389 84
    endloop
  endfacet
  facet normal 0 -0 -1
    outer loop
      vertex 129.477 58.9726 84
      vertex 133.346 57.7157 84
      vertex 128.455 58.7553 84
    endloop
  endfacet
  facet normal -0.864528 0.502584 0
    outer loop
      vertex 27.9549 18.9389 90
      vertex 19.3369 4.1145 84
      vertex 19.3369 4.1145 90
    endloop
  endfacet
  facet normal -0 0 1
    outer loop
      vertex 18.6052 2.84716 90
      vertex 129.477 -58.9726 90
      vertex 19.3369 4.1145 90
    endloop
  endfacet
  facet normal -0 0 1
    outer loop
      vertex 128.455 58.7553 90
      vertex 129.477 -58.9726 90
      vertex 129.477 58.9726 90
    endloop
  endfacet
  facet normal 0 -0 -1
    outer loop
      vertex 27.9549 18.9389 84
      vertex 133.346 57.7157 84
      vertex 19.3369 4.1145 84
    endloop
  endfacet
  facet normal 0 0 -1
    outer loop
      vertex 18 0 84
      vertex 133.346 57.7157 84
      vertex 18.153 -1.45538 84
    endloop
  endfacet
  facet normal 0 0 1
    outer loop
      vertex 134.568 -56.0337 90
      vertex 129.477 -58.9726 90
      vertex 134.045 -56.9389 90
    endloop
  endfacet
  facet normal 0 0 1
    outer loop
      vertex 134.045 -56.9389 90
      vertex 129.477 -58.9726 90
      vertex 133.346 -57.7157 90
    endloop
  endfacet
  facet normal -0.587762 -0.809034 0
    outer loop
      vertex 29.5 -20.3301 84
      vertex 29.5 -20.3301 90
      vertex 28.6543 -19.7157 84
    endloop
  endfacet
  facet normal -0.406777 -0.913527 0
    outer loop
      vertex 30.4549 -20.7553 84
      vertex 29.5 -20.3301 90
      vertex 29.5 -20.3301 84
    endloop
  endfacet
  facet normal 0 0 -1
    outer loop
      vertex 134.891 55.0396 84
      vertex 133.346 57.7157 84
      vertex 134.568 56.0337 84
    endloop
  endfacet
  facet normal 0 0 -1
    outer loop
      vertex 135 54 84
      vertex 133.346 57.7157 84
      vertex 134.891 55.0396 84
    endloop
  endfacet
  facet normal 0 0 -1
    outer loop
      vertex 128.455 -58.7553 84
      vertex 133.346 57.7157 84
      vertex 129.477 -58.9726 84
    endloop
  endfacet
  facet normal 0 0 -1
    outer loop
      vertex 30.4549 -20.7553 84
      vertex 133.346 57.7157 84
      vertex 128.455 -58.7553 84
    endloop
  endfacet
  facet normal 0 0 1
    outer loop
      vertex 133.346 57.7157 90
      vertex 129.477 -58.9726 90
      vertex 134.045 56.9389 90
    endloop
  endfacet
  facet normal 0 0 1
    outer loop
      vertex 132.5 58.3301 90
      vertex 129.477 -58.9726 90
      vertex 133.346 57.7157 90
    endloop
  endfacet
  facet normal 0 0 1
    outer loop
      vertex 131.545 -58.7553 90
      vertex 129.477 -58.9726 90
      vertex 130.523 -58.9726 90
    endloop
  endfacet
  facet normal -0 -1 -0
    outer loop
      vertex 130.523 -58.9726 90
      vertex 129.477 -58.9726 90
      vertex 130.523 -58.9726 84
    endloop
  endfacet
  facet normal 0 0 1
    outer loop
      vertex 130.523 58.9726 90
      vertex 129.477 -58.9726 90
      vertex 131.545 58.7553 90
    endloop
  endfacet
  facet normal -0 0 1
    outer loop
      vertex 129.477 58.9726 90
      vertex 129.477 -58.9726 90
      vertex 130.523 58.9726 90
    endloop
  endfacet
endsolid OpenSCAD_Model
