solid OpenSCAD_Model
  facet normal 0.846522 -0.532354 0
    outer loop
      vertex 432.627 -22.494 100
      vertex 433.104 -21.7355 94
      vertex 433.104 -21.7355 100
    endloop
  endfacet
  facet normal 0 0 1
    outer loop
      vertex 433.5 60 100
      vertex 430.39 63.8997 100
      vertex 433.5 -20 100
    endloop
  endfacet
  facet normal -0.993748 -0.111645 0
    outer loop
      vertex 400.5 -20 94
      vertex 400.6 -20.8901 100
      vertex 400.5 -20 100
    endloop
  endfacet
  facet normal -0.111988 0.99371 0
    outer loop
      vertex 404.5 64 94
      vertex 403.61 63.8997 94
      vertex 404.5 64 100
    endloop
  endfacet
  facet normal 0.993748 0.111645 0
    outer loop
      vertex 433.4 60.8901 100
      vertex 433.5 60 100
      vertex 433.4 60.8901 94
    endloop
  endfacet
  facet normal 0.993748 0.111645 0
    outer loop
      vertex 433.4 60.8901 94
      vertex 433.5 60 100
      vertex 433.5 60 94
    endloop
  endfacet
  facet normal 0.111988 0.99371 0
    outer loop
      vertex 429.5 64 100
      vertex 430.39 63.8997 100
      vertex 429.5 64 94
    endloop
  endfacet
  facet normal 0 -0 1
    outer loop
      vertex 402.006 -23.1273 100
      vertex 430.39 63.8997 100
      vertex 401.373 -22.494 100
    endloop
  endfacet
  facet normal -0.993748 0.111645 0
    outer loop
      vertex 400.5 60 100
      vertex 400.6 60.8901 94
      vertex 400.5 60 94
    endloop
  endfacet
  facet normal 0 0 -1
    outer loop
      vertex 433.4 60.8901 94
      vertex 432.627 62.494 94
      vertex 433.104 61.7355 94
    endloop
  endfacet
  facet normal -0.94382 -0.33046 0
    outer loop
      vertex 400.6 -20.8901 94
      vertex 400.896 -21.7355 94
      vertex 400.6 -20.8901 100
    endloop
  endfacet
  facet normal -0.532286 0.846565 0
    outer loop
      vertex 402.764 63.6039 94
      vertex 402.006 63.1273 94
      vertex 402.764 63.6039 100
    endloop
  endfacet
  facet normal 0.532286 -0.846565 0
    outer loop
      vertex 431.994 -23.1273 100
      vertex 431.236 -23.6039 94
      vertex 431.994 -23.1273 94
    endloop
  endfacet
  facet normal -1 -0 0
    outer loop
      vertex 400.5 60 100
      vertex 400.5 -20 94
      vertex 400.5 -20 100
    endloop
  endfacet
  facet normal -0.993748 -0.111645 0
    outer loop
      vertex 400.6 -20.8901 94
      vertex 400.6 -20.8901 100
      vertex 400.5 -20 94
    endloop
  endfacet
  facet normal -0.846522 0.532354 0
    outer loop
      vertex 400.896 61.7355 94
      vertex 401.373 62.494 100
      vertex 401.373 62.494 94
    endloop
  endfacet
  facet normal 0 0 -1
    outer loop
      vertex 433.4 -20.8901 94
      vertex 432.627 62.494 94
      vertex 433.5 -20 94
    endloop
  endfacet
  facet normal 0.111988 0.99371 0
    outer loop
      vertex 429.5 64 94
      vertex 430.39 63.8997 100
      vertex 430.39 63.8997 94
    endloop
  endfacet
  facet normal 0.707274 0.706939 0
    outer loop
      vertex 432.627 62.494 100
      vertex 432.627 62.494 94
      vertex 431.994 63.1273 100
    endloop
  endfacet
  facet normal 1 0 0
    outer loop
      vertex 433.5 60 100
      vertex 433.5 -20 94
      vertex 433.5 60 94
    endloop
  endfacet
  facet normal 0.707274 -0.706939 0
    outer loop
      vertex 432.627 -22.494 94
      vertex 432.627 -22.494 100
      vertex 431.994 -23.1273 94
    endloop
  endfacet
  facet normal 0 0 1
    outer loop
      vertex 431.994 63.1273 100
      vertex 430.39 63.8997 100
      vertex 432.627 62.494 100
    endloop
  endfacet
  facet normal 0 -1 0
    outer loop
      vertex 404.5 -24 100
      vertex 404.5 -24 94
      vertex 429.5 -24 100
    endloop
  endfacet
  facet normal 0 0 1
    outer loop
      vertex 433.5 -20 100
      vertex 430.39 63.8997 100
      vertex 433.4 -20.8901 100
    endloop
  endfacet
  facet normal -0.111988 -0.99371 -0
    outer loop
      vertex 403.61 -23.8997 100
      vertex 403.61 -23.8997 94
      vertex 404.5 -24 100
    endloop
  endfacet
  facet normal -1 0 0
    outer loop
      vertex 400.5 60 94
      vertex 400.5 -20 94
      vertex 400.5 60 100
    endloop
  endfacet
  facet normal -0.707274 -0.706939 -0
    outer loop
      vertex 401.373 -22.494 100
      vertex 401.373 -22.494 94
      vertex 402.006 -23.1273 100
    endloop
  endfacet
  facet normal 0.111988 -0.99371 0
    outer loop
      vertex 429.5 -24 100
      vertex 430.39 -23.8997 94
      vertex 430.39 -23.8997 100
    endloop
  endfacet
  facet normal -0.707274 0.706939 0
    outer loop
      vertex 402.006 63.1273 94
      vertex 401.373 62.494 100
      vertex 402.006 63.1273 100
    endloop
  endfacet
  facet normal -0 -0 -1
    outer loop
      vertex 430.39 63.8997 94
      vertex 432.627 62.494 94
      vertex 429.5 64 94
    endloop
  endfacet
  facet normal 0 0 -1
    outer loop
      vertex 432.627 -22.494 94
      vertex 432.627 62.494 94
      vertex 433.104 -21.7355 94
    endloop
  endfacet
  facet normal 0 0 -1
    outer loop
      vertex 430.39 -23.8997 94
      vertex 432.627 62.494 94
      vertex 431.236 -23.6039 94
    endloop
  endfacet
  facet normal 0.111988 -0.99371 0
    outer loop
      vertex 429.5 -24 94
      vertex 430.39 -23.8997 94
      vertex 429.5 -24 100
    endloop
  endfacet
  facet normal 0.330052 -0.943963 0
    outer loop
      vertex 430.39 -23.8997 94
      vertex 431.236 -23.6039 94
      vertex 430.39 -23.8997 100
    endloop
  endfacet
  facet normal 0.330052 0.943963 -0
    outer loop
      vertex 430.39 63.8997 94
      vertex 430.39 63.8997 100
      vertex 431.236 63.6039 94
    endloop
  endfacet
  facet normal 0 -1 -0
    outer loop
      vertex 429.5 -24 100
      vertex 404.5 -24 94
      vertex 429.5 -24 94
    endloop
  endfacet
  facet normal 1 -0 0
    outer loop
      vertex 433.5 -20 100
      vertex 433.5 -20 94
      vertex 433.5 60 100
    endloop
  endfacet
  facet normal 0.94382 0.33046 -0
    outer loop
      vertex 433.104 61.7355 94
      vertex 433.104 61.7355 100
      vertex 433.4 60.8901 94
    endloop
  endfacet
  facet normal -0.993748 0.111645 0
    outer loop
      vertex 400.6 60.8901 100
      vertex 400.6 60.8901 94
      vertex 400.5 60 100
    endloop
  endfacet
  facet normal -0.111988 0.99371 0
    outer loop
      vertex 404.5 64 100
      vertex 403.61 63.8997 94
      vertex 403.61 63.8997 100
    endloop
  endfacet
  facet normal 0 1 0
    outer loop
      vertex 404.5 64 94
      vertex 404.5 64 100
      vertex 429.5 64 94
    endloop
  endfacet
  facet normal 0 0 1
    outer loop
      vertex 400.896 61.7355 100
      vertex 430.39 63.8997 100
      vertex 401.373 62.494 100
    endloop
  endfacet
  facet normal 0 0 -1
    outer loop
      vertex 400.5 60 94
      vertex 432.627 62.494 94
      vertex 400.5 -20 94
    endloop
  endfacet
  facet normal -0.330052 0.943963 0
    outer loop
      vertex 402.764 63.6039 94
      vertex 402.764 63.6039 100
      vertex 403.61 63.8997 94
    endloop
  endfacet
  facet normal 0.94382 0.33046 -0
    outer loop
      vertex 433.4 60.8901 94
      vertex 433.104 61.7355 100
      vertex 433.4 60.8901 100
    endloop
  endfacet
  facet normal 0 -0 -1
    outer loop
      vertex 403.61 63.8997 94
      vertex 432.627 62.494 94
      vertex 402.764 63.6039 94
    endloop
  endfacet
  facet normal -0.532286 0.846565 0
    outer loop
      vertex 402.764 63.6039 100
      vertex 402.006 63.1273 94
      vertex 402.006 63.1273 100
    endloop
  endfacet
  facet normal -0.707274 -0.706939 -0
    outer loop
      vertex 402.006 -23.1273 100
      vertex 401.373 -22.494 94
      vertex 402.006 -23.1273 94
    endloop
  endfacet
  facet normal 0.846522 0.532354 -0
    outer loop
      vertex 433.104 61.7355 94
      vertex 432.627 62.494 94
      vertex 433.104 61.7355 100
    endloop
  endfacet
  facet normal -0.707274 0.706939 0
    outer loop
      vertex 401.373 62.494 94
      vertex 401.373 62.494 100
      vertex 402.006 63.1273 94
    endloop
  endfacet
  facet normal 0.993748 -0.111645 0
    outer loop
      vertex 433.5 -20 100
      vertex 433.4 -20.8901 100
      vertex 433.5 -20 94
    endloop
  endfacet
  facet normal 0 0 1
    outer loop
      vertex 431.236 63.6039 100
      vertex 430.39 63.8997 100
      vertex 431.994 63.1273 100
    endloop
  endfacet
  facet normal 0.993748 -0.111645 0
    outer loop
      vertex 433.5 -20 94
      vertex 433.4 -20.8901 100
      vertex 433.4 -20.8901 94
    endloop
  endfacet
  facet normal 0 -0 1
    outer loop
      vertex 400.6 -20.8901 100
      vertex 430.39 63.8997 100
      vertex 400.5 -20 100
    endloop
  endfacet
  facet normal -0.330052 0.943963 0
    outer loop
      vertex 403.61 63.8997 94
      vertex 402.764 63.6039 100
      vertex 403.61 63.8997 100
    endloop
  endfacet
  facet normal 0 0 1
    outer loop
      vertex 403.61 63.8997 100
      vertex 430.39 63.8997 100
      vertex 404.5 64 100
    endloop
  endfacet
  facet normal 0.846522 -0.532354 0
    outer loop
      vertex 432.627 -22.494 94
      vertex 433.104 -21.7355 94
      vertex 432.627 -22.494 100
    endloop
  endfacet
  facet normal 0 1 -0
    outer loop
      vertex 429.5 64 94
      vertex 404.5 64 100
      vertex 429.5 64 100
    endloop
  endfacet
  facet normal -0.330052 -0.943963 0
    outer loop
      vertex 402.764 -23.6039 94
      vertex 403.61 -23.8997 94
      vertex 402.764 -23.6039 100
    endloop
  endfacet
  facet normal -0.94382 -0.33046 0
    outer loop
      vertex 400.6 -20.8901 100
      vertex 400.896 -21.7355 94
      vertex 400.896 -21.7355 100
    endloop
  endfacet
  facet normal -0.94382 0.33046 0
    outer loop
      vertex 400.896 61.7355 100
      vertex 400.6 60.8901 94
      vertex 400.6 60.8901 100
    endloop
  endfacet
  facet normal -0.94382 0.33046 0
    outer loop
      vertex 400.896 61.7355 94
      vertex 400.6 60.8901 94
      vertex 400.896 61.7355 100
    endloop
  endfacet
  facet normal -0.846522 0.532354 0
    outer loop
      vertex 400.896 61.7355 100
      vertex 401.373 62.494 100
      vertex 400.896 61.7355 94
    endloop
  endfacet
  facet normal 0 -0 1
    outer loop
      vertex 400.896 -21.7355 100
      vertex 430.39 63.8997 100
      vertex 400.6 -20.8901 100
    endloop
  endfacet
  facet normal 0 -0 1
    outer loop
      vertex 403.61 -23.8997 100
      vertex 430.39 63.8997 100
      vertex 402.764 -23.6039 100
    endloop
  endfacet
  facet normal 0.330052 0.943963 -0
    outer loop
      vertex 431.236 63.6039 94
      vertex 430.39 63.8997 100
      vertex 431.236 63.6039 100
    endloop
  endfacet
  facet normal 0 0 1
    outer loop
      vertex 433.4 60.8901 100
      vertex 430.39 63.8997 100
      vertex 433.5 60 100
    endloop
  endfacet
  facet normal 0 0 -1
    outer loop
      vertex 400.5 -20 94
      vertex 432.627 62.494 94
      vertex 400.6 -20.8901 94
    endloop
  endfacet
  facet normal 0.846522 0.532354 0
    outer loop
      vertex 433.104 61.7355 100
      vertex 432.627 62.494 94
      vertex 432.627 62.494 100
    endloop
  endfacet
  facet normal -0.532286 -0.846565 0
    outer loop
      vertex 402.764 -23.6039 94
      vertex 402.006 -23.1273 100
      vertex 402.006 -23.1273 94
    endloop
  endfacet
  facet normal 0 0 1
    outer loop
      vertex 431.236 -23.6039 100
      vertex 430.39 63.8997 100
      vertex 430.39 -23.8997 100
    endloop
  endfacet
  facet normal -0.532286 -0.846565 -0
    outer loop
      vertex 402.764 -23.6039 100
      vertex 402.006 -23.1273 100
      vertex 402.764 -23.6039 94
    endloop
  endfacet
  facet normal 0 0 1
    outer loop
      vertex 402.764 63.6039 100
      vertex 430.39 63.8997 100
      vertex 403.61 63.8997 100
    endloop
  endfacet
  facet normal 0.532286 0.846565 0
    outer loop
      vertex 431.236 63.6039 100
      vertex 431.994 63.1273 94
      vertex 431.236 63.6039 94
    endloop
  endfacet
  facet normal 0 -0 1
    outer loop
      vertex 401.373 -22.494 100
      vertex 430.39 63.8997 100
      vertex 400.896 -21.7355 100
    endloop
  endfacet
  facet normal -0 0 1
    outer loop
      vertex 404.5 64 100
      vertex 430.39 63.8997 100
      vertex 429.5 64 100
    endloop
  endfacet
  facet normal 0 -0 1
    outer loop
      vertex 404.5 -24 100
      vertex 430.39 63.8997 100
      vertex 403.61 -23.8997 100
    endloop
  endfacet
  facet normal -0 -0 -1
    outer loop
      vertex 429.5 64 94
      vertex 432.627 62.494 94
      vertex 404.5 64 94
    endloop
  endfacet
  facet normal -0.330052 -0.943963 0
    outer loop
      vertex 402.764 -23.6039 100
      vertex 403.61 -23.8997 94
      vertex 403.61 -23.8997 100
    endloop
  endfacet
  facet normal -0.111988 -0.99371 -0
    outer loop
      vertex 404.5 -24 100
      vertex 403.61 -23.8997 94
      vertex 404.5 -24 94
    endloop
  endfacet
  facet normal 0 0 -1
    outer loop
      vertex 401.373 -22.494 94
      vertex 432.627 62.494 94
      vertex 402.006 -23.1273 94
    endloop
  endfacet
  facet normal 0 0 1
    outer loop
      vertex 402.006 63.1273 100
      vertex 430.39 63.8997 100
      vertex 402.764 63.6039 100
    endloop
  endfacet
  facet normal 0 -0 -1
    outer loop
      vertex 402.764 63.6039 94
      vertex 432.627 62.494 94
      vertex 402.006 63.1273 94
    endloop
  endfacet
  facet normal -0.846522 -0.532354 0
    outer loop
      vertex 400.896 -21.7355 94
      vertex 401.373 -22.494 94
      vertex 400.896 -21.7355 100
    endloop
  endfacet
  facet normal 0 0 -1
    outer loop
      vertex 400.896 -21.7355 94
      vertex 432.627 62.494 94
      vertex 401.373 -22.494 94
    endloop
  endfacet
  facet normal 0.532286 0.846565 0
    outer loop
      vertex 431.994 63.1273 100
      vertex 431.994 63.1273 94
      vertex 431.236 63.6039 100
    endloop
  endfacet
  facet normal -0.846522 -0.532354 0
    outer loop
      vertex 400.896 -21.7355 100
      vertex 401.373 -22.494 94
      vertex 401.373 -22.494 100
    endloop
  endfacet
  facet normal 0 0 -1
    outer loop
      vertex 433.104 -21.7355 94
      vertex 432.627 62.494 94
      vertex 433.4 -20.8901 94
    endloop
  endfacet
  facet normal 0 -0 -1
    outer loop
      vertex 402.006 63.1273 94
      vertex 432.627 62.494 94
      vertex 401.373 62.494 94
    endloop
  endfacet
  facet normal 0.532286 -0.846565 0
    outer loop
      vertex 431.236 -23.6039 100
      vertex 431.236 -23.6039 94
      vertex 431.994 -23.1273 100
    endloop
  endfacet
  facet normal 0 0 -1
    outer loop
      vertex 402.006 -23.1273 94
      vertex 432.627 62.494 94
      vertex 402.764 -23.6039 94
    endloop
  endfacet
  facet normal 0 -0 -1
    outer loop
      vertex 401.373 62.494 94
      vertex 432.627 62.494 94
      vertex 400.896 61.7355 94
    endloop
  endfacet
  facet normal 0 0 1
    outer loop
      vertex 400.6 60.8901 100
      vertex 430.39 63.8997 100
      vertex 400.896 61.7355 100
    endloop
  endfacet
  facet normal 0 0 1
    outer loop
      vertex 401.373 62.494 100
      vertex 430.39 63.8997 100
      vertex 402.006 63.1273 100
    endloop
  endfacet
  facet normal 0 0 -1
    outer loop
      vertex 402.764 -23.6039 94
      vertex 432.627 62.494 94
      vertex 403.61 -23.8997 94
    endloop
  endfacet
  facet normal 0 0 -1
    outer loop
      vertex 403.61 -23.8997 94
      vertex 432.627 62.494 94
      vertex 404.5 -24 94
    endloop
  endfacet
  facet normal 0.707274 0.706939 0
    outer loop
      vertex 431.994 63.1273 100
      vertex 432.627 62.494 94
      vertex 431.994 63.1273 94
    endloop
  endfacet
  facet normal 0.330052 -0.943963 0
    outer loop
      vertex 430.39 -23.8997 100
      vertex 431.236 -23.6039 94
      vertex 431.236 -23.6039 100
    endloop
  endfacet
  facet normal 0 -0 1
    outer loop
      vertex 402.764 -23.6039 100
      vertex 430.39 63.8997 100
      vertex 402.006 -23.1273 100
    endloop
  endfacet
  facet normal 0 0 1
    outer loop
      vertex 433.104 -21.7355 100
      vertex 430.39 63.8997 100
      vertex 432.627 -22.494 100
    endloop
  endfacet
  facet normal 0 0 1
    outer loop
      vertex 431.994 -23.1273 100
      vertex 430.39 63.8997 100
      vertex 431.236 -23.6039 100
    endloop
  endfacet
  facet normal 0.707274 -0.706939 0
    outer loop
      vertex 431.994 -23.1273 94
      vertex 432.627 -22.494 100
      vertex 431.994 -23.1273 100
    endloop
  endfacet
  facet normal 0 -0 -1
    outer loop
      vertex 404.5 64 94
      vertex 432.627 62.494 94
      vertex 403.61 63.8997 94
    endloop
  endfacet
  facet normal 0 0 -1
    outer loop
      vertex 400.6 -20.8901 94
      vertex 432.627 62.494 94
      vertex 400.896 -21.7355 94
    endloop
  endfacet
  facet normal 0 -0 1
    outer loop
      vertex 429.5 -24 100
      vertex 430.39 63.8997 100
      vertex 404.5 -24 100
    endloop
  endfacet
  facet normal 0 -0 1
    outer loop
      vertex 430.39 -23.8997 100
      vertex 430.39 63.8997 100
      vertex 429.5 -24 100
    endloop
  endfacet
  facet normal 0.94382 -0.33046 0
    outer loop
      vertex 433.104 -21.7355 94
      vertex 433.4 -20.8901 100
      vertex 433.104 -21.7355 100
    endloop
  endfacet
  facet normal 0.94382 -0.33046 0
    outer loop
      vertex 433.4 -20.8901 94
      vertex 433.4 -20.8901 100
      vertex 433.104 -21.7355 94
    endloop
  endfacet
  facet normal 0 0 -1
    outer loop
      vertex 433.5 -20 94
      vertex 432.627 62.494 94
      vertex 433.5 60 94
    endloop
  endfacet
  facet normal 0 0 -1
    outer loop
      vertex 433.5 60 94
      vertex 432.627 62.494 94
      vertex 433.4 60.8901 94
    endloop
  endfacet
  facet normal 0 0 -1
    outer loop
      vertex 431.994 -23.1273 94
      vertex 432.627 62.494 94
      vertex 432.627 -22.494 94
    endloop
  endfacet
  facet normal 0 0 -1
    outer loop
      vertex 431.236 -23.6039 94
      vertex 432.627 62.494 94
      vertex 431.994 -23.1273 94
    endloop
  endfacet
  facet normal 0 0 1
    outer loop
      vertex 433.4 -20.8901 100
      vertex 430.39 63.8997 100
      vertex 433.104 -21.7355 100
    endloop
  endfacet
  facet normal 0 0 1
    outer loop
      vertex 432.627 -22.494 100
      vertex 430.39 63.8997 100
      vertex 431.994 -23.1273 100
    endloop
  endfacet
  facet normal -0 -0 -1
    outer loop
      vertex 431.994 63.1273 94
      vertex 432.627 62.494 94
      vertex 431.236 63.6039 94
    endloop
  endfacet
  facet normal -0 -0 -1
    outer loop
      vertex 431.236 63.6039 94
      vertex 432.627 62.494 94
      vertex 430.39 63.8997 94
    endloop
  endfacet
  facet normal 0 0 1
    outer loop
      vertex 433.104 61.7355 100
      vertex 430.39 63.8997 100
      vertex 433.4 60.8901 100
    endloop
  endfacet
  facet normal 0 0 1
    outer loop
      vertex 432.627 62.494 100
      vertex 430.39 63.8997 100
      vertex 433.104 61.7355 100
    endloop
  endfacet
  facet normal 0 0 -1
    outer loop
      vertex 429.5 -24 94
      vertex 432.627 62.494 94
      vertex 430.39 -23.8997 94
    endloop
  endfacet
  facet normal 0 0 -1
    outer loop
      vertex 404.5 -24 94
      vertex 432.627 62.494 94
      vertex 429.5 -24 94
    endloop
  endfacet
  facet normal 0 0 1
    outer loop
      vertex 400.5 60 100
      vertex 430.39 63.8997 100
      vertex 400.6 60.8901 100
    endloop
  endfacet
  facet normal 0 0 1
    outer loop
      vertex 400.5 -20 100
      vertex 430.39 63.8997 100
      vertex 400.5 60 100
    endloop
  endfacet
  facet normal 0 -0 -1
    outer loop
      vertex 400.6 60.8901 94
      vertex 432.627 62.494 94
      vertex 400.5 60 94
    endloop
  endfacet
  facet normal 0 -0 -1
    outer loop
      vertex 400.896 61.7355 94
      vertex 432.627 62.494 94
      vertex 400.6 60.8901 94
    endloop
  endfacet
endsolid OpenSCAD_Model
